<?xml version="1.0" encoding="UTF-8" standalone="no"?>
<!-- Generator: Adobe Illustrator 13.0.1, SVG Export Plug-In . SVG Version: 6.00 Build 14948)  -->

<svg
   xmlns:dc="http://purl.org/dc/elements/1.1/"
   xmlns:cc="http://creativecommons.org/ns#"
   xmlns:rdf="http://www.w3.org/1999/02/22-rdf-syntax-ns#"
   xmlns:svg="http://www.w3.org/2000/svg"
   xmlns="http://www.w3.org/2000/svg"
   xmlns:sodipodi="http://sodipodi.sourceforge.net/DTD/sodipodi-0.dtd"
   xmlns:inkscape="http://www.inkscape.org/namespaces/inkscape"
   version="1.1"
   id="Layer_1"
   x="0px"
   y="0px"
   width="375.307px"
   height="103.826px"
   viewBox="0 0 375.307 103.826"
   enable-background="new 0 0 375.307 103.826"
   xml:space="preserve"
   sodipodi:docname="Benix_logo.svg"
   inkscape:version="0.92.3 (2405546, 2018-03-11)"><metadata
   id="metadata9"><rdf:RDF><cc:Work
       rdf:about=""><dc:format>image/svg+xml</dc:format><dc:type
         rdf:resource="http://purl.org/dc/dcmitype/StillImage" /><dc:title></dc:title></cc:Work></rdf:RDF></metadata><defs
   id="defs7" /><sodipodi:namedview
   pagecolor="#ffffff"
   bordercolor="#666666"
   borderopacity="1"
   objecttolerance="10"
   gridtolerance="10"
   guidetolerance="10"
   inkscape:pageopacity="0"
   inkscape:pageshadow="2"
   inkscape:window-width="2560"
   inkscape:window-height="1377"
   id="namedview5"
   showgrid="false"
   inkscape:zoom="2"
   inkscape:cx="195.3536"
   inkscape:cy="76.35533"
   inkscape:window-x="1912"
   inkscape:window-y="-8"
   inkscape:window-maximized="1"
   inkscape:current-layer="Layer_1" />
<path
   fill="#231F20"
   d="M365.594,0c-5.353,0-9.709,4.357-9.709,9.709c0,5.355,4.356,9.714,9.709,9.714  c5.354,0,9.712-4.358,9.712-9.714C375.306,4.357,370.95,0,365.594,0z M365.594,18.445c-4.813,0-8.729-3.917-8.729-8.736  c0-4.813,3.915-8.731,8.729-8.731c4.812,0,8.729,3.918,8.729,8.731C374.324,14.528,370.407,18.445,365.594,18.445z M369.626,9.638  c0.409-0.486,0.609-1.062,0.609-1.741c0-0.812-0.262-1.45-0.781-1.905c-0.518-0.461-1.229-0.69-2.144-0.69h-5.359v9.34h1.16v-4.086  h3.625l2.333,4.086h1.284l-2.339-4.105C368.682,10.417,369.219,10.115,369.626,9.638z M363.113,9.461V6.376h4.178  c0.552,0,0.976,0.134,1.274,0.409c0.304,0.273,0.452,0.655,0.452,1.145c0,0.502-0.148,0.882-0.452,1.142  c-0.301,0.261-0.748,0.39-1.332,0.39L363.113,9.461L363.113,9.461z M98.448,88.108h-2.38v15.142h13.62v-2.178h-11.24V88.108z   M84.536,93.481l-5.021-5.373l-3.059,0.012l6.904,7.398v7.732h2.326v-7.77l6.944-7.375h-3.167L84.536,93.481z M147.699,103.349  h2.381V96.38h7.506v-2.181h-7.506v-3.783h11.613v-2.214h-13.994V103.349z M52.876,95.108c-1.232-0.813-3.049-1.223-5.463-1.223  c-1.733,0-2.956-0.142-3.656-0.425c-0.704-0.284-1.058-0.765-1.058-1.435c0-0.647,0.354-1.174,1.05-1.578  c0.689-0.401,1.611-0.604,2.766-0.604c0.991,0,2.033,0.178,3.119,0.522c1.091,0.352,2.103,0.847,3.046,1.481l1.188-1.969  c-1.131-0.72-2.312-1.265-3.535-1.636c-1.229-0.368-2.486-0.548-3.791-0.548c-1.898,0-3.42,0.394-4.544,1.186  c-1.137,0.793-1.696,1.842-1.696,3.143c0,1.392,0.515,2.39,1.548,2.996c1.025,0.603,2.914,0.916,5.674,0.955  c1.633,0.049,2.827,0.28,3.577,0.702c0.759,0.418,1.139,1.062,1.139,1.923c0,0.859-0.41,1.566-1.238,2.12  c-0.832,0.552-1.923,0.823-3.264,0.823c-1.13,0-2.296-0.195-3.531-0.587c-1.229-0.388-2.362-0.931-3.406-1.627l-1.151,1.981  c1.206,0.771,2.529,1.367,3.984,1.783c1.45,0.414,2.898,0.625,4.369,0.625c1.992,0,3.604-0.469,4.852-1.412  c1.244-0.951,1.869-2.137,1.869-3.568C54.72,97.14,54.101,95.927,52.876,95.108z M152.406,58.578H96.135V37.006h34.996v-9.818  H96.135v-17.05h53.298V0.156H85.42v68.239h66.985V58.578z M61.557,62.914c4.229-3.649,6.355-8.644,6.355-14.972  c0-3.847-0.953-7.283-2.862-10.366c-1.938-3.055-4.771-5.648-8.565-7.774c2.13-1.334,3.766-3.081,4.885-5.233  c1.114-2.155,1.663-4.609,1.663-7.395c0-5.54-1.771-9.738-5.348-12.572C54.113,1.735,48.881,0.32,41.948,0.32H0v68.076h44.02  C51.497,68.396,57.331,66.569,61.557,62.914z M10.718,10.138H41.62c3.521,0,6.137,0.65,7.885,1.99  c1.718,1.336,2.592,3.327,2.592,6.001c0,2.676-0.874,4.663-2.592,6.027c-1.748,1.365-4.312,2.046-7.719,2.046H10.718V10.138z   M10.718,36.185h34.504c3.734,0,6.629,0.981,8.675,2.92c2.048,1.934,3.08,4.693,3.08,8.211c0,3.569-1.031,6.33-3.08,8.315  c-2.046,1.964-4.939,2.947-8.675,2.947H10.718V36.185z M58.07,90.22h6.386v13.03h2.362V90.22h6.404V88.11H58.07V90.22z   M178.818,97.944c0,1.449-0.346,2.428-1.027,2.937c-0.687,0.513-2.055,0.765-4.095,0.765c-2.034,0-3.396-0.252-4.081-0.765  c-0.683-0.509-1.027-1.485-1.027-2.937v-9.705h-2.377v10.318c0,1.883,0.578,3.229,1.735,4.043c1.163,0.813,3.063,1.226,5.717,1.226  c2.654,0,4.574-0.416,5.749-1.242c1.182-0.829,1.769-2.169,1.769-4.026V88.239h-2.36L178.818,97.944L178.818,97.944z   M115.808,96.284h7.764v-2.182h-7.764v-3.783h11.83v-2.213h-14.21v15.144h14.864v-2.178h-12.484V96.284z M200.166,95.25  c0.688-0.781,1.033-1.717,1.033-2.794c0-1.326-0.433-2.354-1.312-3.096c-0.871-0.748-2.082-1.125-3.634-1.125h-10.432v15.108h2.38  v-6.614h6.6l4.287,6.614h2.571l-4.201-6.649C198.573,96.519,199.474,96.034,200.166,95.25z M188.203,94.515v-4.099h8.052  c0.816,0,1.44,0.18,1.871,0.522c0.432,0.35,0.648,0.861,0.648,1.518c0,0.664-0.222,1.173-0.648,1.529  c-0.431,0.354-1.055,0.526-1.871,0.526h-8.052V94.515z M265.625,97.944c0,1.449-0.347,2.428-1.03,2.937  c-0.684,0.513-2.05,0.765-4.09,0.765c-2.033,0-3.396-0.252-4.079-0.765c-0.688-0.509-1.028-1.485-1.028-2.937v-9.705h-2.377v10.318  c0,1.883,0.578,3.229,1.735,4.043c1.16,0.813,3.062,1.226,5.714,1.226c2.657,0,4.576-0.416,5.752-1.242  c1.177-0.829,1.765-2.169,1.765-4.026V88.239h-2.359L265.625,97.944L265.625,97.944z M286.691,95.25  c0.692-0.781,1.034-1.717,1.034-2.794c0-1.326-0.436-2.354-1.312-3.096c-0.871-0.748-2.082-1.125-3.635-1.125h-10.431v15.108h2.383  v-6.614h6.599l4.282,6.614h2.574l-4.205-6.649C285.101,96.519,286.002,96.034,286.691,95.25z M274.732,94.515v-4.099h8.048  c0.821,0,1.444,0.18,1.872,0.522c0.428,0.35,0.646,0.861,0.646,1.518c0,0.664-0.219,1.173-0.646,1.529  c-0.428,0.354-1.051,0.526-1.872,0.526h-8.048V94.515z M346.744,0.156h-13.093l-21.902,26.211L289.768,0.156h-12.847l28.287,34.036  l-28.696,34.204h12.632l22.605-26.701l22.367,26.701h12.958l-28.773-34.528L346.744,0.156z M294.939,96.382h7.768v-2.183h-7.768  v-3.783h11.827v-2.214h-14.207v15.146h14.871v-2.183h-12.491V96.382z M262.539,12.992L251.871,0.153L251.683,0v68.133l10.854-12.942  L262.539,12.992L262.539,12.992z M228.646,0.156h-10.475v47.946L174.774,0.156h-5.592v68.239h10.558V20.612l43.312,47.783h5.595  L228.646,0.156L228.646,0.156z M218.586,98.842l-10.691-10.637h-1.237v15.141h2.34V92.737l10.678,10.606h1.242v-15.14h-2.329  L218.586,98.842L218.586,98.842z M226.595,103.349h2.41v-15.18h-2.41V103.349z M233.708,90.315h6.386v13.028h2.362V90.315h6.4v-2.11  h-15.148V90.315z"
   id="path2" />
</svg>