<svg xmlns="http://www.w3.org/2000/svg" version="1.1" xmlns:xlink="http://www.w3.org/1999/xlink" xmlns:svgjs="http://svgjs.dev/svgjs" width="1500" height="700" preserveAspectRatio="none" viewBox="0 0 1500 700"><g mask="url(&quot;#SvgjsMask1084&quot;)" fill="none"><rect width="1500" height="700" x="0" y="0" fill="rgba(21, 67, 96, 1)"></rect><path d="M0,615.781C110.904,592.764,188.052,501.962,280.877,437.054C369.474,375.103,474.973,334.679,532.711,243.281C594.647,145.237,641.212,24.306,612.614,-88.081C584.527,-198.459,466.667,-254.1,385.751,-334.255C311.845,-407.465,255.931,-503.053,158.073,-538.346C57.688,-574.551,-51.061,-551.559,-155.459,-529.446C-267.402,-505.734,-399.164,-496.953,-468.192,-405.691C-536.998,-314.722,-484.08,-184.828,-501.389,-72.089C-518.928,42.151,-594.04,147.376,-570.475,260.527C-544.704,384.27,-474.631,504.771,-367.337,571.587C-260.484,638.128,-123.251,641.361,0,615.781" fill="#0e2c3e"></path><path d="M1500 1416.759C1635.837 1448.663 1800.597 1419.558 1898.6019999999999 1320.238 1995.959 1221.575 1944.8809999999999 1054.537 1987.556 922.66 2023.517 811.529 2141.676 725.693 2128.551 609.628 2115.3959999999997 493.303 2004.826 416.936 1921.112 335.104 1843.734 259.466 1756.004 203.803 1660.7930000000001 152.38800000000003 1541.244 87.83000000000004 1426.291-31.775999999999954 1293.312-3.9160000000000537 1161.144 23.774 1100.461 175.96500000000003 1022.381 286.141 951.447 386.233 880.729 487.076 859.699 607.939 838.278 731.049 836.319 866.947 902.926 972.675 967.299 1074.857 1109.0439999999999 1085.48 1205.9479999999999 1157.554 1312.958 1237.144 1370.17 1386.266 1500 1416.759" fill="#1c5a82"></path></g><defs><mask id="SvgjsMask1084"><rect width="1500" height="700" fill="#ffffff"></rect></mask></defs></svg>